<svg width="35" height="23" viewBox="0 0 35 23" fill="none" xmlns="http://www.w3.org/2000/svg">
<path d="M8.15899 0.275818C8.19372 0.275818 8.22839 0.276036 8.263 0.276471L18.6418 0.276676L16.8637 3.89217L14.8519 3.89224C15.5952 5.05616 16.0243 6.42842 16.0243 7.8978C16.0243 7.94582 16.0238 7.99374 16.0229 8.04155L16.0243 8.04154V15.0598C16.0243 19.2879 12.4923 22.7169 8.13368 22.7169C5.55209 22.7169 3.17869 21.503 1.70952 19.5067L1.64798 19.4218L4.71435 17.3622C5.4887 18.4449 6.75289 19.1014 8.13368 19.1014C10.4063 19.1014 12.2545 17.3301 12.2928 15.1294L12.2934 15.0598L12.2934 14.383C11.0921 15.1038 9.6757 15.5198 8.15899 15.5198C3.81511 15.5198 0.293701 12.1073 0.293701 7.8978C0.293701 3.68829 3.81511 0.275818 8.15899 0.275818ZM26.8136 0.275818C31.1574 0.275818 34.6788 3.68829 34.6788 7.8978C34.6788 12.1073 31.1574 15.5198 26.8136 15.5198C22.4697 15.5198 18.9483 12.1073 18.9483 7.8978C18.9483 3.68829 22.4697 0.275818 26.8136 0.275818ZM8.24599 3.89218H8.07199C5.8288 3.93706 4.02461 5.71325 4.02461 7.8978C4.02461 10.1105 5.87564 11.9043 8.15899 11.9043C10.4423 11.9043 12.2934 10.1105 12.2934 7.8978C12.2934 5.71325 10.4892 3.93706 8.24599 3.89218ZM26.8136 3.89131C24.5302 3.89131 22.6792 5.68508 22.6792 7.8978C22.6792 10.1105 24.5302 11.9043 26.8136 11.9043C29.0969 11.9043 30.9479 10.1105 30.9479 7.8978C30.9479 5.68508 29.0969 3.89131 26.8136 3.89131Z" fill="#00A9DE"/>
</svg>
