<svg width="49" height="49" viewBox="0 0 49 49" fill="none" xmlns="http://www.w3.org/2000/svg">
<g filter="url(#filter0_dd_1_608)">
<rect x="4.4375" y="2.42188" width="40" height="40" rx="12" fill="#00A9DE" shape-rendering="crispEdges"/>
<g clip-path="url(#clip0_1_608)">
<path d="M23.7049 14.1785C24.0938 13.8119 24.75 13.8119 25.1701 14.1785L34.059 21.9556C34.5208 22.3619 34.566 23.0632 34.1632 23.5251C33.7569 23.9869 33.0556 24.032 32.5938 23.6292L24.4375 16.491L16.2802 23.6292C15.8184 24.032 15.1167 23.9869 14.7124 23.5251C14.3083 23.0632 14.3551 22.3619 14.817 21.9556L23.7049 14.1785Z" fill="white"/>
<path opacity="0.4" d="M24.4375 16.4908L32.2187 23.2992L32.2326 29.4554C32.2361 30.6846 31.2396 31.6811 30.0104 31.6811H18.8854C17.6576 31.6811 16.6628 30.6881 16.6621 29.4589L16.6604 23.2957L24.4375 16.4908Z" fill="white"/>
</g>
</g>
<defs>
<filter id="filter0_dd_1_608" x="0.4375" y="0.421875" width="48" height="48" filterUnits="userSpaceOnUse" color-interpolation-filters="sRGB">
<feFlood flood-opacity="0" result="BackgroundImageFix"/>
<feColorMatrix in="SourceAlpha" type="matrix" values="0 0 0 0 0 0 0 0 0 0 0 0 0 0 0 0 0 0 127 0" result="hardAlpha"/>
<feOffset dy="2"/>
<feGaussianBlur stdDeviation="2"/>
<feComposite in2="hardAlpha" operator="out"/>
<feColorMatrix type="matrix" values="0 0 0 0 0.176806 0 0 0 0 0.139861 0 0 0 0 0.139861 0 0 0 0.05 0"/>
<feBlend mode="normal" in2="BackgroundImageFix" result="effect1_dropShadow_1_608"/>
<feColorMatrix in="SourceAlpha" type="matrix" values="0 0 0 0 0 0 0 0 0 0 0 0 0 0 0 0 0 0 127 0" result="hardAlpha"/>
<feOffset dy="1"/>
<feGaussianBlur stdDeviation="1"/>
<feComposite in2="hardAlpha" operator="out"/>
<feColorMatrix type="matrix" values="0 0 0 0 0.176471 0 0 0 0 0.141176 0 0 0 0 0.141176 0 0 0 0.03 0"/>
<feBlend mode="normal" in2="effect1_dropShadow_1_608" result="effect2_dropShadow_1_608"/>
<feBlend mode="normal" in="SourceGraphic" in2="effect2_dropShadow_1_608" result="shape"/>
</filter>
<clipPath id="clip0_1_608">
<rect width="20" height="20" fill="white" transform="translate(14.4375 12.4219)"/>
</clipPath>
</defs>
</svg>
