<svg width="24" height="24" viewBox="0 0 24 24" fill="none" xmlns="http://www.w3.org/2000/svg">
<g clip-path="url(#clip0_1_728)">
<path d="M12 24C15.1826 24 18.2348 22.7357 20.4853 20.4853C22.7357 18.2348 24 15.1826 24 12C24 8.8174 22.7357 5.76516 20.4853 3.51472C18.2348 1.26428 15.1826 0 12 0C8.8174 0 5.76516 1.26428 3.51472 3.51472C1.26428 5.76516 0 8.8174 0 12C0 15.1826 1.26428 18.2348 3.51472 20.4853C5.76516 22.7357 8.8174 24 12 24ZM13.5 12C13.5 11.6022 13.342 11.2206 13.0607 10.9393C12.7794 10.658 12.3978 10.5 12 10.5C11.6022 10.5 11.2206 10.658 10.9393 10.9393C10.658 11.2206 10.5 11.6022 10.5 12C10.5 12.3978 10.658 12.7794 10.9393 13.0607C11.2206 13.342 11.6022 13.5 12 13.5C12.3978 13.5 12.7794 13.342 13.0607 13.0607C13.342 12.7794 13.5 12.3978 13.5 12ZM12.7453 14.9062V17.9531C14.8219 17.6953 16.5656 16.3781 17.4234 14.5594L14.5219 13.6172C14.1187 14.25 13.4859 14.7188 12.7406 14.9109L12.7453 14.9062ZM14.9906 12.1875L17.8875 13.1297C17.9578 12.7641 17.9953 12.3844 17.9953 11.9953C17.9953 10.2703 17.2688 8.71875 16.1063 7.62188L14.3156 10.0875C14.7422 10.6031 14.9953 11.2688 14.9953 11.9906C14.9953 12.0563 14.9953 12.1172 14.9906 12.1781V12.1875ZM13.1063 9.21094L14.8969 6.74531C14.0391 6.27187 13.05 6 12 6C10.95 6 9.96094 6.27187 9.10312 6.74531L10.4203 8.56406L10.8891 9.21094C11.2312 9.075 11.6062 9 11.9953 9C12.3844 9 12.7594 9.075 13.1016 9.21094H13.1063ZM7.88906 7.62656C6.72656 8.72344 6 10.275 6 12C6 12.3891 6.0375 12.7641 6.10781 13.1344L9.00469 12.1875C9 12.1266 9 12.0609 9 12C9 11.2781 9.25781 10.6125 9.67969 10.0969L9.20625 9.44531L7.88906 7.63125V7.62656ZM9.46875 13.6125L6.56719 14.5547C7.425 16.3734 9.16875 17.6906 11.2453 17.9484V14.9016C10.5047 14.7094 9.87187 14.2406 9.46875 13.6125ZM12 4.5C13.9891 4.5 15.8968 5.29018 17.3033 6.6967C18.7098 8.10322 19.5 10.0109 19.5 12C19.5 13.9891 18.7098 15.8968 17.3033 17.3033C15.8968 18.7098 13.9891 19.5 12 19.5C10.0109 19.5 8.10322 18.7098 6.6967 17.3033C5.29018 15.8968 4.5 13.9891 4.5 12C4.5 10.0109 5.29018 8.10322 6.6967 6.6967C8.10322 5.29018 10.0109 4.5 12 4.5Z" fill="#2196f3"/>
</g>
<defs>
<clipPath id="clip0_1_728">
<rect width="24" height="24" fill="white"/>
</clipPath>
</defs>
</svg>
