<svg width="24" height="24" viewBox="0 0 24 24" fill="none" xmlns="http://www.w3.org/2000/svg">
<g clip-path="url(#clip0_53_31)">
<path d="M24 2.39999V17.4C24 19.7212 22.1213 21.6 19.8 21.6C17.5125 21.6 15.6563 19.7737 15.6 17.5012L1.81501 21.2587C1.17376 21.4312 0.517514 21.0562 0.341264 20.415C0.165014 19.7737 0.543764 19.1175 1.18501 18.9412L13.2 15.6675V4.79999C13.2 3.47624 14.2763 2.39999 15.6 2.39999H24ZM21.6 17.4C21.6 16.9226 21.4104 16.4648 21.0728 16.1272C20.7352 15.7896 20.2774 15.6 19.8 15.6C19.3226 15.6 18.8648 15.7896 18.5272 16.1272C18.1897 16.4648 18 16.9226 18 17.4C18 17.8774 18.1897 18.3352 18.5272 18.6728C18.8648 19.0104 19.3226 19.2 19.8 19.2C20.2774 19.2 20.7352 19.0104 21.0728 18.6728C21.4104 18.3352 21.6 17.8774 21.6 17.4ZM0.866264 10.1887C0.693764 9.54749 1.07626 8.89124 1.71376 8.71874L3.45376 8.25374L4.23001 11.1525C4.31626 11.4712 4.64626 11.6625 4.96501 11.5762L6.12376 11.265C6.44251 11.1787 6.63376 10.8487 6.54751 10.53L5.77126 7.63124L7.51126 7.16624C8.15251 6.99374 8.80876 7.37624 8.98127 8.01374L10.5338 13.8075C10.7063 14.4487 10.3238 15.105 9.68626 15.2775L3.88876 16.8337C3.24751 17.0062 2.59126 16.6237 2.41876 15.9862L0.866264 10.1887Z" fill="#2196f3"/>
</g>
<defs>
<clipPath id="clip0_53_31">
<rect width="24" height="21" fill="white"/>
</clipPath>
</defs>
</svg>
