<svg width="41" height="41" viewBox="0 0 41 41" fill="none" xmlns="http://www.w3.org/2000/svg">
<g filter="url(#filter0_dd_1_619)">
<g clip-path="url(#clip0_1_619)">
<path d="M22.6875 17.4219C22.6875 18.6641 21.6797 19.6719 20.4375 19.6719C19.1953 19.6719 18.1875 18.6641 18.1875 17.4219C18.1875 16.1797 19.1953 15.1719 20.4375 15.1719C21.6797 15.1719 22.6875 16.1797 22.6875 17.4219Z" fill="#00A9DE"/>
<path opacity="0.4" d="M19.3266 31.8219C16.8797 28.8125 11.4375 21.5188 11.4375 17.4219C11.4375 12.4513 15.4669 8.42188 20.4375 8.42188C25.4062 8.42188 29.4375 12.4513 29.4375 17.4219C29.4375 21.5188 23.9531 28.8125 21.5484 31.8219C20.9719 32.5391 19.9031 32.5391 19.3266 31.8219ZM20.4375 21.1719C22.5094 21.1719 24.1875 19.4937 24.1875 17.4219C24.1875 15.35 22.5094 13.6719 20.4375 13.6719C18.3656 13.6719 16.6875 15.35 16.6875 17.4219C16.6875 19.4937 18.3656 21.1719 20.4375 21.1719Z" fill="#6BCDEC"/>
</g>
</g>
<defs>
<filter id="filter0_dd_1_619" x="-3.5625" y="-1.57812" width="48" height="48" filterUnits="userSpaceOnUse" color-interpolation-filters="sRGB">
<feFlood flood-opacity="0" result="BackgroundImageFix"/>
<feColorMatrix in="SourceAlpha" type="matrix" values="0 0 0 0 0 0 0 0 0 0 0 0 0 0 0 0 0 0 127 0" result="hardAlpha"/>
<feOffset dy="2"/>
<feGaussianBlur stdDeviation="2"/>
<feComposite in2="hardAlpha" operator="out"/>
<feColorMatrix type="matrix" values="0 0 0 0 0.176806 0 0 0 0 0.139861 0 0 0 0 0.139861 0 0 0 0.05 0"/>
<feBlend mode="normal" in2="BackgroundImageFix" result="effect1_dropShadow_1_619"/>
<feColorMatrix in="SourceAlpha" type="matrix" values="0 0 0 0 0 0 0 0 0 0 0 0 0 0 0 0 0 0 127 0" result="hardAlpha"/>
<feOffset dy="1"/>
<feGaussianBlur stdDeviation="1"/>
<feComposite in2="hardAlpha" operator="out"/>
<feColorMatrix type="matrix" values="0 0 0 0 0.176471 0 0 0 0 0.141176 0 0 0 0 0.141176 0 0 0 0.03 0"/>
<feBlend mode="normal" in2="effect1_dropShadow_1_619" result="effect2_dropShadow_1_619"/>
<feBlend mode="normal" in="SourceGraphic" in2="effect2_dropShadow_1_619" result="shape"/>
</filter>
<clipPath id="clip0_1_619">
<rect width="18" height="24" fill="white" transform="translate(11.4375 8.42188)"/>
</clipPath>
</defs>
</svg>
